<?xml version="1.0" encoding="UTF-8"?>
<svg xmlns="http://www.w3.org/2000/svg" xmlns:xlink="http://www.w3.org/1999/xlink" width="25px" height="20px" viewBox="0 0 25 20" version="1.1">
<g id="surface1">
<path style=" stroke:none;fill-rule:evenodd;fill:rgb(47.45098%,32.156863%,70.196078%);fill-opacity:1;" d="M 5.191406 0.00390625 C 3.765625 0.00390625 2.710938 1.257812 2.757812 2.617188 C 2.804688 3.921875 2.746094 5.613281 2.320312 6.992188 C 1.894531 8.375 1.175781 9.253906 0 9.363281 L 0 10.636719 C 1.175781 10.746094 1.894531 11.625 2.320312 13.007812 C 2.746094 14.386719 2.804688 16.078125 2.757812 17.382812 C 2.710938 18.742188 3.765625 19.996094 5.191406 19.996094 L 19.808594 19.996094 C 21.234375 19.996094 22.292969 18.742188 22.242188 17.382812 C 22.199219 16.078125 22.257812 14.386719 22.679688 13.007812 C 23.105469 11.625 23.824219 10.746094 25 10.636719 L 25 9.363281 C 23.824219 9.253906 23.105469 8.375 22.679688 6.992188 C 22.257812 5.613281 22.199219 3.921875 22.242188 2.617188 C 22.292969 1.257812 21.234375 0.00390625 19.808594 0.00390625 Z M 16.949219 12.3125 C 16.949219 14.183594 15.558594 15.316406 13.25 15.316406 L 9.320312 15.316406 C 9.089844 15.316406 8.898438 15.128906 8.898438 14.890625 L 8.898438 5.109375 C 8.898438 4.871094 9.089844 4.683594 9.320312 4.683594 L 13.226562 4.683594 C 15.152344 4.683594 16.414062 5.730469 16.414062 7.335938 C 16.414062 8.464844 15.566406 9.472656 14.484375 9.648438 L 14.484375 9.707031 C 15.957031 9.871094 16.949219 10.894531 16.949219 12.3125 Z M 12.820312 6.03125 L 10.582031 6.03125 L 10.582031 9.207031 L 12.46875 9.207031 C 13.925781 9.207031 14.730469 8.617188 14.730469 7.5625 C 14.730469 6.574219 14.039062 6.03125 12.820312 6.03125 Z M 10.582031 10.46875 L 10.582031 13.96875 L 12.90625 13.96875 C 14.421875 13.96875 15.226562 13.355469 15.226562 12.207031 C 15.226562 11.058594 14.402344 10.46875 12.808594 10.46875 Z M 10.582031 10.46875 "/>
</g>
</svg>
